<mxfile host="app.diagrams.net" modified="2023-05-21T09:37:02.763Z" agent="Mozilla/5.0 (Windows NT 10.0; Win64; x64) AppleWebKit/537.36 (KHTML, like Gecko) Chrome/113.0.0.0 Safari/537.36" version="21.3.2" etag="_abL_KK1u4-PH7RuB8nV" type="github">
  <diagram name="Страница 1" id="9Si_5lG44x0IGF35MXzA">
    <mxGraphModel>
      <root>
        <mxCell id="0" />
        <mxCell id="1" parent="0" />
      </root>
    </mxGraphModel>
  </diagram>
</mxfile>
